<svg width="20" height="20" viewBox="0 0 20 20" fill="none" xmlns="http://www.w3.org/2000/svg">
<g clip-path="url(#clip0_43_638)">
<path d="M2.98301 17.6633H14.8655L14.298 15.8258L15.6555 16.9908L16.8997 18.1058L19.1663 20V2.0625C19.1097 0.9475 18.1497 0 16.9597 0L2.98717 0.0025C1.79801 0.0025 0.833008 0.951667 0.833008 2.06667V15.6C0.833008 16.7758 1.79634 17.6633 2.98301 17.6633ZM11.773 4.73583L11.7455 4.74583L11.7555 4.73583H11.773ZM5.41384 5.79333C6.94134 4.68167 8.35717 4.735 8.35717 4.735L8.47134 4.8475C6.60218 5.29333 5.75467 6.12833 5.75467 6.12833C5.75467 6.12833 5.98134 6.0175 6.37717 5.84833C8.89467 4.85833 11.6438 4.93 14.1888 6.18333C14.1888 6.18333 13.3397 5.4025 11.5855 4.9025L11.7405 4.75C11.983 4.75083 13.2663 4.79583 14.6397 5.8C14.6397 5.8 16.1763 8.425 16.1763 11.65C16.1255 11.5883 15.223 13.0383 12.9005 13.0883C12.9005 13.0883 12.5072 12.6433 12.2272 12.255C13.5855 11.865 14.0938 11.085 14.0938 11.085C13.648 11.3658 13.2413 11.5325 12.9113 11.6992C12.4038 11.9225 11.8955 12.0325 11.388 12.145C8.98468 12.535 7.63551 11.8825 6.36051 11.365L5.92467 11.1433C5.92467 11.1433 6.43218 11.9233 7.73634 12.3133C7.39384 12.7042 7.05467 13.1483 7.05467 13.1483C4.73301 13.0933 3.88634 11.6433 3.88634 11.6433C3.88634 8.41333 5.41384 5.79333 5.41384 5.79333Z" fill="white"/>
<path d="M11.9231 10.6422C12.5156 10.6422 12.9981 10.1422 12.9981 9.52558C12.9981 8.91308 12.5181 8.41309 11.9231 8.41309V8.41559C11.3331 8.41559 10.8498 8.91392 10.8481 9.53058C10.8481 10.1422 11.3306 10.6422 11.9231 10.6422Z" fill="white"/>
<path d="M8.075 10.6422C8.66749 10.6422 9.14999 10.1422 9.14999 9.52558C9.14999 8.91308 8.67083 8.41309 8.07833 8.41309L8.075 8.41559C7.4825 8.41559 7 8.91392 7 9.53058C7 10.1422 7.4825 10.6422 8.075 10.6422Z" fill="white"/>
</g>
<defs>
<clipPath id="clip0_43_638">
<rect width="20" height="20" fill="white"/>
</clipPath>
</defs>
</svg>
